<?xml version="1.0" encoding="UTF-8"?>
<svg id="Layer_1" data-name="Layer 1" xmlns="http://www.w3.org/2000/svg" viewBox="0 0 188.13 38.33">
  <defs>
    <style>
      .cls-1 {
        fill: #648e29;
      }
    </style>
  </defs>
  <g>
    <path class="cls-1" d="M14.1,24.21c-2.01,0-3.04-1.38-3.04-3.08,0-1.59.76-2.6,1.22-3.14.35-.37.68-.44,1.11-.13.37.24.5.44.17.92-.33.5-.81,1.13-.81,2.14,0,1.11.48,1.68,1.35,1.68,1.2,0,1.66-.66,1.66-2.42,0-2.18-.07-4.39-.07-6.59,0-1.22.02-2.25.07-3.06-.74.02-1.53.02-2.34.02-1.77,0-2.6.37-2.6,1.51,0,1.35.94,1.88,1.44,2.31.26.26.07.63-.11.83-.26.31-.74.46-1.18.15-.7-.5-1.83-1.46-1.83-3.38s1.55-3.01,3.97-3.01c.98,0,1.9-.02,2.75-.04.09-.48.33-.7,1-.63.55.04.7.17.72.59,1.4-.04,2.6-.11,3.62-.17.65-.02.81.24.81.81.02.55-.24.76-.81.81-.92.09-2.18.15-3.69.2-.04.81-.07,1.83-.07,3.08,0,2.23.07,4.28.07,6.7,0,2.56-1.22,3.93-3.45,3.93l.04-.03Z"/>
    <path class="cls-1" d="M31.42,20.76c0,1.31.22,1.81.9,1.81,1.11,0,2.45-1.35,3.06-2.36.17-.31.52-.48.85-.33.37.22.28.7.11,1.05-.66,1.18-2.27,3.23-4.54,3.23-1.44,0-2.03-.98-2.03-2.99,0-1.46.04-3.62.04-4.67,0-1.33-.52-2.05-1.62-2.05s-1.94.39-2.88,1.18c-.04,2.31-.09,4.87-.09,7.42,0,.87-.22,1.05-.83,1.05-.63.02-.85-.22-.85-.83,0-6.97.13-11.81.22-14.39.07-.87.41-.94.98-.92.63,0,.76.35.74.9-.04,1.24-.09,3.12-.15,5.31.76-.72,1.9-1.35,3.25-1.35,1.7,0,2.95,1.05,2.95,3.25,0,1.64-.11,3.6-.11,4.69Z"/>
    <path class="cls-1" d="M36.85,20.76c.39,1.29,1.24,1.88,2.51,1.88,1.51,0,2.38-.66,3.04-1.27.33-.31.55-.37.87.04.31.35.33.68.02,1-.76.83-2.14,1.68-3.95,1.68-2.99,0-4.5-2.1-4.5-5.35,0-3.6,1.68-5.98,3.97-5.98,1.48,0,2.29,1,2.29,2.45,0,2.55-1.92,4.26-4.26,5.55h.01ZM36.59,19.36c1.66-1,2.93-2.18,2.93-3.95,0-.72-.28-1.11-.9-1.11-1.05,0-2.05,1.4-2.05,4.3,0,.28,0,.52.02.76Z"/>
    <path class="cls-1" d="M55.26,13.92c-1.35,0-2.47-.31-3.38-.81-.39.9-.61,2.01-.61,3.34,0,3.21,1.42,5.02,3.91,5.02,1.59,0,2.64-.39,3.27-1.18-.02-1.27-.04-2.38-.07-3.08,0-.57.2-.87.9-.9.74-.04.96.15.96,1,0,.68-.07,1.31-.22,1.9.07,1.14.11,2.6.11,3.76,0,3.36-2.21,4.56-5.13,4.56-1.9,0-2.99-.48-3.84-1-.46-.31-.5-.68-.26-1.14.28-.52.57-.61,1-.33.65.44,1.64.94,3.17.94,2.1,0,3.41-.68,3.41-2.99v-1.14c-.9.76-2.12,1.18-3.58,1.18-3.34,0-5.39-2.49-5.39-6.55,0-1.77.37-3.23,1-4.39-.79-.72-1.38-1.59-1.86-2.4-.2-.35-.11-.72.28-.98.5-.31.74-.33.94-.04.5.79.96,1.53,1.55,2.14,1.31-1.46,3.21-2.18,5.26-2.18s3.34.96,3.34,2.53c0,1.66-1.9,2.73-4.76,2.73h0ZM52.69,11.82c.72.37,1.64.61,2.86.61,1.7,0,2.75-.44,2.75-1.22,0-.63-.65-1.05-1.81-1.05-1.48,0-2.84.52-3.8,1.66Z"/>
    <path class="cls-1" d="M66.86,12.74c1.05,0,1.81.35,2.34.81,0-.13.02-.24.02-.35.04-.7.35-.83.96-.83.42.02.74.15.72.74-.09,1.57-.17,4.67-.17,7.01,0,2.01.24,2.49.98,2.49,1.35,0,2.45-1.35,3.21-2.55.17-.24.55-.22.79-.04.24.2.24.48.07.83-.5.92-2.18,3.32-4.5,3.32-1,0-1.59-.52-1.9-1.48-.63.7-1.62,1.4-3.1,1.4-2.1,0-3.78-1.62-3.78-5.76s2.27-5.57,4.37-5.57v-.02ZM66.53,22.59c1.18,0,1.99-.46,2.58-1.29-.02-.37-.04-.79-.04-1.22,0-1.53.02-3.54.09-5.11-.44-.46-1.07-.76-2.01-.76-1.68,0-3.01,1.09-3.01,4.06,0,3.19,1.03,4.32,2.4,4.32h0Z"/>
    <path class="cls-1" d="M81.27,20.97c0,1.24.31,1.64,1.05,1.64,1.07,0,2.4-1.35,3.06-2.36.24-.35.52-.57.85-.37.37.24.33.66.09,1.07-.65,1.09-2.25,3.19-4.45,3.19-1.68,0-2.27-.98-2.27-2.79s.13-3.73.13-5.11c0-1.24-.37-1.81-1.53-1.81-.33,0-.66.02-.94.04-.04,1.46-.22,3.3-.81,5.09-1.07,3.25-3.56,4.54-5.15,4.61-.5,0-.79-.17-.81-.65,0-.46.17-.66,1.14-.87,1.94-.39,2.95-1.86,3.54-4.1.33-1.29.5-2.66.59-3.97-.46-.09-.76-.55-.76-1.64,0-.96.37-1.38,1.2-1.38s1.05.48,1.09,1.48c.46-.04.85-.07,1.24-.07,2.25,0,2.88,1,2.88,2.9s-.13,3.84-.13,5.11h0Z"/>
    <path class="cls-1" d="M89.59,12.79c.96,0,1.59.17,2.07.42.04-1.73.09-3.28.13-4.5.02-.57.28-.76.94-.76.55.02.79.17.76.81-.13,3.23-.24,7.73-.24,11.03,0,2.25.2,2.82.96,2.82,1.18,0,2.53-1.42,3.21-2.49.24-.35.61-.31.81-.15.33.26.31.63.02,1.07-.76,1.27-2.45,3.14-4.41,3.14-.94,0-1.62-.37-1.99-1.44-.7.76-1.7,1.35-3.08,1.35-2.16,0-3.91-1.53-3.91-5.42,0-4.26,2.51-5.87,4.72-5.87h.01ZM89.15,22.61c.98,0,1.83-.5,2.47-1.09-.02-.35-.04-.72-.04-1.16,0-1.88.02-3.82.04-5.63-.44-.24-1-.42-1.83-.42-1.73,0-3.23,1.09-3.23,4.35,0,2.84.96,3.95,2.6,3.95h0Z"/>
    <path class="cls-1" d="M98.87,20.78c.42,1.11,1.25,1.59,2.47,1.59,2.21,0,3.95-1.51,4.65-2.31.26-.33.63-.33.87-.04.24.31.11.7-.02.9-.76,1-2.64,2.99-5.72,2.99-2.79,0-4.28-2.01-4.28-5.13,0-3.6,1.68-5.98,3.97-5.98,1.46,0,2.25.98,2.25,2.38,0,2.58-1.88,4.32-4.19,5.61h0ZM98.59,19.38c1.64-1,2.88-2.18,2.88-3.97,0-.7-.26-1.09-.85-1.09-1.03,0-2.05,1.42-2.05,4.35,0,.26,0,.5.02.72h0Z"/>
    <path class="cls-1" d="M107.52,13.42c-.02.33-.02.63-.04.96.83-.87,1.9-1.53,3.34-1.53,1.72,0,2.84,1.03,2.84,3.14,0,1.75-.04,4.19-.04,5.37,0,.96.15,1.29.74,1.29s.98-.24,1.29-.46c.33-.22.52-.15.72.26.24.48.17.68-.22,1-.46.35-1.11.68-2.14.68-1.24,0-2.05-.7-2.05-2.51v-5.13c0-1.44-.48-2.12-1.59-2.12s-1.99.46-2.93,1.4c-.04,2.16-.04,4.46-.04,7.12,0,.98-.2,1.11-.83,1.13-.63,0-.83-.24-.83-.92,0-3.01,0-6.44.09-9.8.02-.48.33-.61.9-.61.72.02.81.28.81.72h-.02Z"/>
    <path class="cls-1" d="M129.81,16.21c2.42.55,3.45,1.9,3.45,3.84,0,2.77-2.14,4-5.79,4-1.68,0-2.93-.13-3.12-.33-.17-.15-.31-.33-.31-1.18.07-4.74.15-8.67.2-12.1-1.42.31-2.25.92-2.25,1.88,0,1.18.48,1.57.83,1.9.31.33.15.59-.02.79-.28.33-.7.48-1.14.15-.5-.41-1.18-1.2-1.18-2.77,0-2.36,2.45-3.71,6.35-3.71,3.28,0,5.31,1.24,5.31,4.06,0,1.79-.81,2.95-2.34,3.47h0ZM125.86,17.07c-.02,1.73-.04,3.47-.07,5.35.5.04,1.09.09,1.73.09,2.79,0,3.97-.59,3.97-2.47,0-2.01-1.79-2.99-4.56-2.99-.37,0-.74,0-1.07.02ZM125.95,10.25c-.02,1.81-.04,3.54-.07,5.31h.76c2.4,0,3.82-.52,3.82-2.64,0-1.86-1.31-2.69-3.67-2.69-.31,0-.59,0-.85.02h0Z"/>
    <path class="cls-1" d="M136.5,10.84c-.66,0-1.03-.46-1.03-1.22s.59-1.14,1.16-1.14c.63,0,1.07.61,1.07,1.29,0,.59-.52,1.07-1.2,1.07h0ZM137.31,20.01c0,1.96.15,2.55.85,2.55,1.42,0,2.51-1.4,3.32-2.49.24-.33.57-.28.81-.11.26.2.22.66,0,.96-.68,1.07-2.27,3.23-4.45,3.23-1.42,0-2.23-.83-2.23-4,0-2.36.04-4.72.11-6.27.04-.94.33-.96.98-.96.55.02.66.26.66.7-.02,1.38-.04,3.56-.04,6.38h-.01Z"/>
    <path class="cls-1" d="M145.65,24.18c-1.57,0-2.36-.74-2.66-1.2-.37-.52-.42-.87.02-1.24.35-.26.72-.31.98.04.33.39.76.98,1.73.98.7,0,1.29-.33,1.29-1.16,0-.96-1-2.07-1.94-3.38-.28-.37-.52-.74-.76-1.09-.22.72-.5,1.44-.83,2.14-1.51,3.21-3.84,4.89-5.74,4.89-.44,0-.61-.17-.65-.57-.04-.48.41-.55,1.03-.76,2.01-.74,3.23-2.25,4.08-4.21.52-1.2.89-2.53,1.09-3.6-.24-.68-.35-1.33-.35-1.94,0-.87.28-1.2,1.09-1.2s1.05.28,1.05,1.09c0,.55-.07,1.24-.22,2.03.44.85,1.07,1.73,1.73,2.62.98,1.33,2.07,2.42,2.07,3.89,0,1.55-1.14,2.69-2.99,2.69l-.02-.02Z"/>
    <path class="cls-1" d="M155.13,14.49c-.57.02-1.62.04-2.64.09-.04,1.64-.07,3.47-.07,5.15,0,2.16.5,3.04,1.79,3.04,2.03,0,3.1-1.27,4.02-2.45.39-.5.66-.61.94-.39.31.22.33.61-.02,1.13-.79,1.2-2.23,3.19-5,3.19-1.96,0-3.41-.94-3.41-4.43,0-1.7.04-3.52.09-5.18-.28,0-.5.02-.68.02-.57.04-.68-.24-.7-.76s.09-.72.59-.76c.17-.02.48-.02.83-.04.02-1.11.07-2.07.09-2.79.02-.55.37-.63.96-.63s.7.22.68.79c-.02.63-.04,1.53-.09,2.55,1.09-.02,2.18-.07,2.73-.07.7-.02.76.2.79.74,0,.55-.07.79-.9.81h0Z"/>
    <path class="cls-1" d="M164.78,20.97c0,1.24.31,1.64,1.05,1.64,1.07,0,2.4-1.35,3.06-2.36.24-.35.52-.57.85-.37.37.24.33.66.09,1.07-.66,1.09-2.25,3.19-4.45,3.19-1.68,0-2.27-.98-2.27-2.79s.13-3.73.13-5.11c0-1.24-.37-1.81-1.53-1.81-.33,0-.65.02-.94.04-.04,1.46-.22,3.3-.81,5.09-1.07,3.25-3.56,4.54-5.15,4.61-.5,0-.79-.17-.81-.65,0-.46.17-.66,1.13-.87,1.94-.39,2.95-1.86,3.54-4.1.33-1.29.5-2.66.59-3.97-.46-.09-.76-.55-.76-1.64,0-.96.37-1.38,1.2-1.38s1.05.48,1.09,1.48c.46-.04.85-.07,1.25-.07,2.25,0,2.88,1,2.88,2.9s-.13,3.84-.13,5.11h-.01Z"/>
    <path class="cls-1" d="M172.6,24.01c-2.73,0-4.21-1.9-4.21-5.22,0-1.9.46-3.1,1.09-3.91.65-1.33,1.92-2.21,3.78-2.21,2.62,0,4,1.88,4,5.44,0,3.76-1.75,5.9-4.65,5.9h0ZM172.68,22.5c1.77,0,2.88-1.59,2.88-4.1,0-2.95-.81-4.19-2.55-4.19-.92,0-1.64.28-2.18.79-.48.85-.81,1.83-.81,3.54,0,2.77.89,3.97,2.66,3.97h0Z"/>
  </g>
  <g>
    <g>
      <path class="cls-1" d="M9.77,25.76c-.79.61-2.44,2.05-3.33,4.49-1.44,3.94.2,7.42.53,8.08"/>
      <path class="cls-1" d="M6.97,38.33c.79-.61,2.44-2.05,3.33-4.49,1.44-3.94-.2-7.42-.53-8.08"/>
    </g>
    <g>
      <path class="cls-1" d="M9.36,25.16c-.47-.57-1.57-1.75-3.4-2.35C3.01,21.84.48,23.14,0,23.41"/>
      <path class="cls-1" d="M0,23.41c.47.57,1.57,1.75,3.4,2.35,2.95.97,5.48-.33,5.96-.6"/>
    </g>
  </g>
  <g>
    <g>
      <path class="cls-1" d="M178.36,12.57c.79-.61,2.44-2.05,3.33-4.49,1.44-3.94-.2-7.42-.53-8.08"/>
      <path class="cls-1" d="M181.16,0c-.79.61-2.44,2.05-3.33,4.49-1.44,3.94.2,7.42.53,8.08"/>
    </g>
    <g>
      <path class="cls-1" d="M178.77,13.17c.47.57,1.57,1.75,3.4,2.35,2.95.97,5.48-.33,5.96-.6"/>
      <path class="cls-1" d="M188.13,14.93c-.47-.57-1.57-1.75-3.4-2.35-2.95-.97-5.48.33-5.96.6"/>
    </g>
  </g>
  <g>
    <path class="cls-1" d="M40.54,31.45c.39-.03.72-.06,1.01-.09.27-.03.32.03.33.26,0,.24,0,.28-.24.31-.32.05-.67.09-1.07.12.02.37.03.74.03,1.14,0,1-.53,1.55-1.43,1.55-.75,0-1.12-.41-1.32-.76-.12-.19-.08-.33.09-.47.13-.11.22-.13.34,0,.19.22.37.6.89.6s.73-.26.73-.94c0-.36,0-.73-.03-1.09-.28,0-.59.02-.94.02-.26,0-.3-.05-.29-.36,0-.19.08-.25.29-.25.34,0,.63,0,.91-.02,0-.31-.02-.62-.02-.94,0-.47,0-.88.02-1.2-.26,0-.53,0-.82,0-.71,0-.98.12-.98.45,0,.46.31.62.47.77.11.1.04.23-.02.31-.09.12-.27.18-.44.06-.24-.17-.63-.49-.63-1.17s.53-1.02,1.55-1.02c.32,0,.62,0,.91,0v-.03c.03-.25.08-.36.4-.34.26.02.3.1.28.34.58-.03,1.09-.06,1.51-.09.26-.02.31.07.33.29,0,.21-.09.3-.3.32-.39.05-.93.08-1.57.1,0,.32-.02.73-.02,1.22,0,.3,0,.6.02.9Z"/>
    <path class="cls-1" d="M45.68,33.41c0,.48.12.63.4.63.41,0,.93-.52,1.18-.91.09-.14.2-.22.33-.14.14.09.13.25.03.41-.25.42-.87,1.23-1.72,1.23-.65,0-.88-.38-.88-1.08s.05-1.44.05-1.97c0-.48-.14-.7-.59-.7-.13,0-.25,0-.36.02-.02.57-.08,1.27-.31,1.97-.41,1.26-1.38,1.75-1.99,1.78-.19,0-.3-.07-.31-.25,0-.18.07-.25.44-.34.75-.15,1.14-.72,1.37-1.59.13-.5.19-1.03.23-1.54-.18-.03-.3-.21-.3-.63,0-.37.14-.53.46-.53s.41.19.42.57c.18-.02.33-.03.48-.03.87,0,1.11.39,1.11,1.12s-.05,1.49-.05,1.97Z"/>
    <path class="cls-1" d="M50.01,34.06c.94-.17,1.48-.62,1.8-.97.13-.13.24-.16.35-.07.12.09.13.19-.02.41-.4.54-1.43,1.21-3.07,1.21h-.09c-.06,0-.13,0-.19,0-1.11,0-1.75-.68-1.75-1.95,0-.51.11-.89.3-1.21.24-.83.84-1.29,1.63-1.29.95,0,1.52.68,1.52,2.13,0,.73-.16,1.33-.47,1.72ZM49.04,34.14c.57-.19.79-.99.79-1.71,0-1.09-.24-1.64-.92-1.64-.59,0-1.11.44-1.11,1.7s.45,1.61,1.24,1.65Z"/>
    <path class="cls-1" d="M52.45,30.64v.2c.25-.27.64-.57,1.1-.57.38,0,.74.15.93.56.26-.28.72-.62,1.25-.62s1.03.31,1.03,1.17c0,.67-.06,1.57-.06,2.02,0,.43.09.61.31.61.5,0,.91-.44,1.25-.92.12-.15.24-.15.35-.08.1.07.08.25-.02.41-.22.35-.84,1.21-1.75,1.21-.48,0-.78-.31-.78-1.06,0-.62.05-1.44.05-1.95s-.1-.8-.52-.8c-.39,0-.69.19-.99.5,0,.07,0,.14,0,.22,0,.89-.03,2.09-.03,2.65,0,.17-.04.31-.29.32-.24,0-.35-.08-.35-.3,0-.62.02-1.91.02-2.59,0-.47-.16-.73-.57-.73-.36,0-.67.21-.96.5,0,.89-.02,1.98-.02,2.84,0,.27-.1.33-.3.33s-.33-.04-.33-.36c0-1.07.03-2.55.04-3.49,0-.38.06-.46.33-.46.25,0,.3.08.3.38Z"/>
    <path class="cls-1" d="M62.7,34.06c.94-.17,1.48-.62,1.8-.97.13-.13.24-.16.35-.07.12.09.13.19-.02.41-.41.54-1.43,1.21-3.07,1.21h-.09c-.06,0-.13,0-.19,0-1.11,0-1.75-.68-1.75-1.95,0-.51.11-.89.3-1.21.25-.83.84-1.29,1.63-1.29.95,0,1.52.68,1.52,2.13,0,.73-.16,1.33-.47,1.72ZM61.73,34.14c.57-.19.79-.99.79-1.71,0-1.09-.24-1.64-.92-1.64-.59,0-1.11.44-1.11,1.7s.45,1.61,1.24,1.65Z"/>
    <path class="cls-1" d="M65.07,32.79c0,1,.22,1.2.73,1.2.35,0,.69-.2.99-.48v-.13c0-.87.05-2.14.1-2.88.03-.22.12-.28.35-.27.21.02.32.07.31.26-.02.57-.11,1.39-.11,2.89,0,.41.03.69.3.69.52,0,1.01-.58,1.27-.96.08-.11.19-.16.33-.06.14.1.08.24-.02.42-.2.35-.84,1.18-1.71,1.18-.43,0-.67-.19-.77-.6-.3.29-.72.56-1.21.56-.74,0-1.21-.42-1.21-1.76,0-1.22,0-1.89.03-2.34,0-.13.13-.19.34-.19.22,0,.31.08.31.23-.02.52-.03,1.24-.03,2.25Z"/>
    <path class="cls-1" d="M71.51,33.41c0,.48.12.63.41.63.41,0,.93-.52,1.18-.91.09-.14.2-.22.33-.14.14.09.13.25.03.41-.25.42-.87,1.23-1.72,1.23-.65,0-.88-.38-.88-1.08s.05-1.44.05-1.97c0-.48-.14-.7-.59-.7-.13,0-.25,0-.36.02-.02.57-.08,1.27-.31,1.97-.41,1.26-1.38,1.75-1.99,1.78-.19,0-.3-.07-.31-.25,0-.18.07-.25.44-.34.75-.15,1.14-.72,1.37-1.59.13-.5.19-1.03.23-1.54-.18-.03-.3-.21-.3-.63,0-.37.14-.53.46-.53s.4.19.42.57c.18-.02.33-.03.48-.03.87,0,1.11.39,1.11,1.12s-.05,1.49-.05,1.97Z"/>
    <path class="cls-1" d="M76.37,30.24c.4,0,.64.12.84.25v-.03c0-.25.13-.33.37-.31.17,0,.26.08.26.29,0,.95.03,2.08.03,3.17.66-.17,1.09-.37,1.46-.56.2-.09.32-.13.41,0,.09.13.05.29-.2.43-.52.3-.96.46-1.68.63,0,.3,0,.61-.03.89-.03.76-.6,1.26-1.5,1.26-.95,0-1.55-.54-1.55-1.2,0-.47.3-.74.74-.93-.55-.24-.9-.82-.9-1.86,0-1.56.95-2.06,1.75-2.06ZM76.4,33.79c.38,0,.65-.07.86-.16,0-.9-.03-1.85-.04-2.56-.18-.13-.4-.23-.76-.23-.55,0-1.18.25-1.18,1.46,0,1.1.42,1.49,1.12,1.49ZM76.36,35.71c.59,0,.88-.29.89-.73,0-.23,0-.46.02-.72-.04,0-.08.02-.13.03-1.05.19-1.7.26-1.7.73,0,.44.45.69.92.69Z"/>
    <path class="cls-1" d="M80.85,30.23c.41,0,.7.14.9.31,0-.05,0-.09,0-.13.02-.27.13-.32.37-.32.16,0,.29.06.28.29-.03.61-.07,1.81-.07,2.71,0,.78.09.96.38.96.52,0,.94-.52,1.24-.99.07-.09.21-.08.3-.02.09.08.09.19.03.32-.19.35-.84,1.28-1.74,1.28-.39,0-.62-.2-.73-.57-.24.27-.62.54-1.2.54-.81,0-1.46-.62-1.46-2.23s.88-2.15,1.69-2.15ZM80.72,34.04c.46,0,.77-.18,1-.5,0-.14-.02-.3-.02-.47,0-.59,0-1.37.03-1.97-.17-.18-.41-.3-.78-.3-.65,0-1.17.42-1.17,1.57,0,1.23.4,1.67.93,1.67Z"/>
    <path class="cls-1" d="M86.42,33.41c0,.48.12.63.41.63.41,0,.93-.52,1.18-.91.09-.14.2-.22.33-.14.14.09.13.25.03.41-.25.42-.87,1.23-1.72,1.23-.65,0-.88-.38-.88-1.08s.05-1.44.05-1.97c0-.48-.14-.7-.59-.7-.13,0-.25,0-.36.02-.02.57-.08,1.27-.31,1.97-.41,1.26-1.38,1.75-1.99,1.78-.19,0-.3-.07-.31-.25,0-.18.07-.25.44-.34.75-.15,1.14-.72,1.37-1.59.13-.5.19-1.03.23-1.54-.18-.03-.3-.21-.3-.63,0-.37.14-.53.46-.53s.4.19.42.57c.18-.02.33-.03.48-.03.87,0,1.11.39,1.11,1.12s-.05,1.49-.05,1.97Z"/>
    <path class="cls-1" d="M89.64,30.25c.37,0,.62.07.8.16.02-.67.03-1.27.05-1.74,0-.22.11-.3.36-.3.21,0,.3.07.29.31-.05,1.25-.09,2.99-.09,4.26,0,.87.08,1.09.37,1.09.46,0,.98-.55,1.24-.96.09-.13.24-.12.31-.06.13.1.12.24,0,.41-.29.49-.95,1.21-1.7,1.21-.36,0-.62-.14-.77-.56-.27.29-.66.52-1.19.52-.83,0-1.51-.59-1.51-2.09,0-1.65.97-2.27,1.82-2.27ZM89.47,34.04c.38,0,.71-.19.95-.42,0-.13-.02-.28-.02-.45,0-.73,0-1.48.02-2.18-.17-.09-.39-.16-.71-.16-.67,0-1.25.42-1.25,1.68,0,1.1.37,1.53,1,1.53Z"/>
    <path class="cls-1" d="M93.23,33.33c.16.43.48.62.95.62.85,0,1.53-.58,1.8-.89.1-.13.24-.13.34-.02.09.12.04.27,0,.35-.3.39-1.02,1.16-2.21,1.16-1.08,0-1.65-.78-1.65-1.98,0-1.39.65-2.31,1.54-2.31.57,0,.87.38.87.92,0,1-.73,1.67-1.62,2.17ZM93.12,32.79c.63-.39,1.11-.84,1.11-1.54,0-.27-.1-.42-.33-.42-.4,0-.79.55-.79,1.68,0,.1,0,.19,0,.28Z"/>
    <path class="cls-1" d="M96.57,30.48c0,.13,0,.25-.02.38.3-.32.74-.59,1.29-.59.64,0,1.09.35,1.09,1.14,0,.67-.04,1.55-.04,2.01s.08.61.34.61c.45,0,.95-.52,1.21-.9.08-.13.2-.2.33-.13.14.08.12.26.04.4-.25.44-.91,1.26-1.76,1.26-.57,0-.79-.35-.79-1.08,0-.61.02-1.55.02-1.99s-.18-.67-.58-.67c-.43,0-.75.19-1.14.53-.02.81-.02,1.69-.02,2.7,0,.39-.08.46-.31.47-.24,0-.33-.11-.33-.39,0-1.37.03-2.47.04-3.77,0-.21.12-.28.34-.28s.3.08.3.31Z"/>
    <path class="cls-1" d="M100.43,35.68c-.18.08-.35.15-.46-.03-.13-.19-.06-.27.05-.33.23-.12.55-.26.55-.79,0-.27-.12-.42-.22-.58-.09-.13.04-.24.19-.3.19-.09.32-.08.43.06.13.17.25.42.25.75,0,.71-.41,1.05-.79,1.22Z"/>
    <path class="cls-1" d="M105.55,30.91c-.22,0-.62.02-1.02.03-.02.63-.02,1.34-.02,1.99,0,.84.19,1.17.69,1.17.79,0,1.2-.49,1.55-.94.15-.19.25-.24.36-.15.12.08.13.24,0,.44-.3.46-.86,1.23-1.93,1.23-.76,0-1.32-.36-1.32-1.71,0-.66.02-1.36.03-2-.11,0-.19,0-.26,0-.22.02-.26-.09-.27-.3,0-.2.03-.28.23-.29.07,0,.19,0,.32-.02,0-.43.03-.8.03-1.08,0-.21.14-.25.37-.25s.27.08.26.3c0,.25-.02.59-.03.99.42,0,.84-.03,1.05-.03.27,0,.3.08.3.29,0,.21-.03.3-.35.31Z"/>
    <path class="cls-1" d="M109.51,34.06c.94-.17,1.48-.62,1.8-.97.13-.13.24-.16.35-.07.12.09.13.19-.02.41-.41.54-1.43,1.21-3.07,1.21h-.09c-.06,0-.13,0-.19,0-1.11,0-1.75-.68-1.75-1.95,0-.51.11-.89.3-1.21.25-.83.84-1.29,1.63-1.29.95,0,1.52.68,1.52,2.13,0,.73-.16,1.33-.47,1.72ZM108.54,34.14c.57-.19.79-.99.79-1.71,0-1.09-.24-1.64-.92-1.64-.59,0-1.11.44-1.11,1.7s.45,1.61,1.24,1.65Z"/>
    <path class="cls-1" d="M113.61,32.69c0,.84.26,1.1.82,1.1.31,0,.62-.09.88-.24,0-1.12,0-2.3,0-3.01,0-.25.12-.33.36-.31.17,0,.27.07.27.28,0,.94,0,2.01-.02,3.03.58-.13,1.14-.27,1.54-.5.19-.1.32-.06.39.07.08.17,0,.26-.26.4-.46.26-1.08.42-1.68.57,0,.35-.02.68-.03,1-.03.79-.53,1.2-1.29,1.2-.81,0-1.33-.42-1.33-1.12,0-.4.2-.67.51-.89-.52-.17-.83-.66-.83-1.53,0-1.1.03-2.04.08-2.28.04-.12.12-.17.31-.17s.29.03.28.22c0,.44-.03,1.15-.03,2.19ZM114.62,35.71c.43,0,.67-.2.67-.69,0-.25,0-.52.02-.79-.78.19-1.42.41-1.42.87,0,.42.28.62.73.62Z"/>
    <path class="cls-1" d="M120.21,34.06c.94-.17,1.48-.62,1.8-.97.13-.13.24-.16.35-.07.12.09.13.19-.02.41-.41.54-1.43,1.21-3.07,1.21h-.09c-.06,0-.13,0-.19,0-1.11,0-1.75-.68-1.75-1.95,0-.51.11-.89.3-1.21.25-.83.84-1.29,1.63-1.29.95,0,1.52.68,1.52,2.13,0,.73-.16,1.33-.47,1.72ZM119.24,34.14c.57-.19.79-.99.79-1.71,0-1.09-.24-1.64-.92-1.64-.59,0-1.11.44-1.11,1.7s.45,1.61,1.24,1.65Z"/>
    <path class="cls-1" d="M122.57,32.79c0,1,.22,1.2.73,1.2.35,0,.69-.2.99-.48v-.13c0-.87.05-2.14.1-2.88.03-.22.12-.28.35-.27.21.02.32.07.31.26-.02.57-.11,1.39-.11,2.89,0,.41.03.69.3.69.52,0,1.01-.58,1.27-.96.08-.11.19-.16.33-.06.14.1.08.24-.02.42-.2.35-.84,1.18-1.71,1.18-.43,0-.67-.19-.77-.6-.3.29-.72.56-1.21.56-.74,0-1.21-.42-1.21-1.76,0-1.22,0-1.89.03-2.34,0-.13.13-.19.34-.19.22,0,.31.08.31.23-.02.52-.03,1.24-.03,2.25Z"/>
    <path class="cls-1" d="M129.01,33.41c0,.48.12.63.41.63.41,0,.93-.52,1.18-.91.09-.14.2-.22.33-.14.14.09.13.25.03.41-.25.42-.87,1.23-1.72,1.23-.65,0-.88-.38-.88-1.08s.05-1.44.05-1.97c0-.48-.14-.7-.59-.7-.13,0-.25,0-.36.02-.02.57-.08,1.27-.31,1.97-.41,1.26-1.38,1.75-1.99,1.78-.19,0-.3-.07-.31-.25,0-.18.07-.25.44-.34.75-.15,1.14-.72,1.37-1.59.13-.5.19-1.03.23-1.54-.18-.03-.3-.21-.3-.63,0-.37.14-.53.46-.53s.4.19.42.57c.18-.02.33-.03.48-.03.87,0,1.11.39,1.11,1.12s-.05,1.49-.05,1.97Z"/>
    <path class="cls-1" d="M134.85,34.06c1.15-.14,1.61-.5,2.02-.91.18-.18.26-.23.38-.13.16.12.1.27,0,.4-.6.75-1.65,1.21-3.1,1.23-.47.08-.88.04-1.2-.1v1.43c0,.26-.13.3-.39.3s-.28-.13-.28-.46c0-2.43.02-4.91.04-5.59.02-.2.16-.24.4-.23.23.02.27.1.26.39,0,.08,0,.16,0,.25.26-.19.6-.34,1.1-.34.95,0,1.52.66,1.52,1.9,0,.93-.31,1.53-.73,1.86ZM132.95,31.21c0,.73,0,1.66,0,2.7.25.15.54.22.94.24.53-.21,1.06-.84,1.06-1.88,0-.89-.29-1.36-.99-1.36-.43,0-.75.13-1,.3Z"/>
    <path class="cls-1" d="M137.47,33.17c.12.67.38.89.82.89.62,0,1.06-.48,1.42-.97.12-.15.2-.16.32-.06.11.1.11.22-.03.43-.34.52-.9,1.18-1.77,1.18-.92,0-1.44-.64-1.44-2.52,0-3.08.38-3.75,1.12-3.75.51,0,.76.47.76,1.27,0,1.59-.46,2.58-1.19,3.53ZM137.4,32.41c.43-.73.67-1.53.67-2.72,0-.54-.08-.73-.24-.73-.25,0-.44.37-.44,3.16v.28Z"/>
    <path class="cls-1" d="M141.17,30.23c.41,0,.7.14.9.31,0-.05,0-.09,0-.13.02-.27.13-.32.37-.32.16,0,.29.06.28.29-.03.61-.07,1.81-.07,2.71,0,.78.09.96.38.96.52,0,.94-.52,1.24-.99.07-.09.21-.08.3-.02.09.08.09.19.03.32-.19.35-.84,1.28-1.74,1.28-.39,0-.62-.2-.73-.57-.24.27-.62.54-1.2.54-.81,0-1.46-.62-1.46-2.23s.88-2.15,1.69-2.15ZM141.04,34.04c.46,0,.77-.18,1-.5,0-.14-.02-.3-.02-.47,0-.59,0-1.37.03-1.97-.17-.18-.41-.3-.78-.3-.65,0-1.17.42-1.17,1.57,0,1.23.4,1.67.93,1.67Z"/>
    <path class="cls-1" d="M145.99,30.91c-.22,0-.62.02-1.02.03-.02.63-.03,1.34-.03,1.99,0,.84.19,1.17.69,1.17.79,0,1.2-.49,1.55-.94.15-.19.25-.24.36-.15.12.08.13.24,0,.44-.3.46-.86,1.23-1.93,1.23-.76,0-1.32-.36-1.32-1.71,0-.66.02-1.36.03-2-.11,0-.19,0-.26,0-.22.02-.26-.09-.27-.3,0-.2.03-.28.23-.29.07,0,.19,0,.32-.02,0-.43.03-.8.03-1.08,0-.21.14-.25.37-.25s.27.08.26.3c0,.25-.02.59-.03.99.42,0,.84-.03,1.05-.03.27,0,.3.08.3.29,0,.21-.03.3-.35.31Z"/>
    <path class="cls-1" d="M147.8,33.33c.16.43.48.62.95.62.85,0,1.53-.58,1.8-.89.1-.13.24-.13.34-.02.09.12.04.27,0,.35-.3.39-1.02,1.16-2.21,1.16-1.08,0-1.65-.78-1.65-1.98,0-1.39.65-2.31,1.54-2.31.57,0,.87.38.87.92,0,1-.73,1.67-1.62,2.17ZM147.69,32.79c.63-.39,1.11-.84,1.11-1.54,0-.27-.1-.42-.33-.42-.4,0-.79.55-.79,1.68,0,.1,0,.19,0,.28Z"/>
  </g>
</svg>