<?xml version="1.0" encoding="UTF-8"?>
<svg id="Layer_1" data-name="Layer 1" xmlns="http://www.w3.org/2000/svg" viewBox="0 0 188.13 38.33">
  <defs>
    <style>
      .cls-1 {
        fill: #648e29;
      }
    </style>
  </defs>
  <g>
    <path class="cls-1" d="M14.1,24.21c-2.01,0-3.04-1.38-3.04-3.08,0-1.59.76-2.6,1.22-3.14.35-.37.68-.44,1.11-.13.37.24.5.44.17.92-.33.5-.81,1.13-.81,2.14,0,1.11.48,1.68,1.35,1.68,1.2,0,1.66-.66,1.66-2.42,0-2.18-.07-4.39-.07-6.59,0-1.22.02-2.25.07-3.06-.74.02-1.53.02-2.34.02-1.77,0-2.6.37-2.6,1.51,0,1.35.94,1.88,1.44,2.31.26.26.07.63-.11.83-.26.31-.74.46-1.18.15-.7-.5-1.83-1.46-1.83-3.38s1.55-3.01,3.97-3.01c.98,0,1.9-.02,2.75-.04.09-.48.33-.7,1-.63.55.04.7.17.72.59,1.4-.04,2.6-.11,3.62-.17.65-.02.81.24.81.81.02.55-.24.76-.81.81-.92.09-2.18.15-3.69.2-.04.81-.07,1.83-.07,3.08,0,2.23.07,4.28.07,6.7,0,2.56-1.22,3.93-3.45,3.93Z"/>
    <path class="cls-1" d="M31.42,20.76c0,1.31.22,1.81.9,1.81,1.11,0,2.45-1.35,3.06-2.36.17-.31.52-.48.85-.33.37.22.28.7.11,1.05-.66,1.18-2.27,3.23-4.54,3.23-1.44,0-2.03-.98-2.03-2.99,0-1.46.04-3.62.04-4.67,0-1.33-.52-2.05-1.62-2.05s-1.94.39-2.88,1.18c-.04,2.31-.09,4.87-.09,7.42,0,.87-.22,1.05-.83,1.05-.63.02-.85-.22-.85-.83,0-6.97.13-11.81.22-14.39.07-.87.41-.94.98-.92.63,0,.76.35.74.9-.04,1.24-.09,3.12-.15,5.31.76-.72,1.9-1.35,3.25-1.35,1.7,0,2.95,1.05,2.95,3.25,0,1.64-.11,3.6-.11,4.69Z"/>
    <path class="cls-1" d="M36.85,20.76c.39,1.29,1.24,1.88,2.51,1.88,1.51,0,2.38-.66,3.04-1.27.33-.31.55-.37.87.04.31.35.33.68.02,1-.76.83-2.14,1.68-3.95,1.68-2.99,0-4.5-2.1-4.5-5.35,0-3.6,1.68-5.98,3.97-5.98,1.48,0,2.29,1,2.29,2.45,0,2.55-1.92,4.26-4.26,5.55ZM36.59,19.36c1.66-1,2.93-2.18,2.93-3.95,0-.72-.28-1.11-.9-1.11-1.05,0-2.05,1.4-2.05,4.3,0,.28,0,.52.02.76Z"/>
    <path class="cls-1" d="M55.26,13.92c-1.35,0-2.47-.31-3.38-.81-.39.9-.61,2.01-.61,3.34,0,3.21,1.42,5.02,3.91,5.02,1.59,0,2.64-.39,3.27-1.18-.02-1.27-.04-2.38-.07-3.08,0-.57.2-.87.9-.9.74-.04.96.15.96,1,0,.68-.07,1.31-.22,1.9.07,1.14.11,2.6.11,3.76,0,3.36-2.21,4.56-5.13,4.56-1.9,0-2.99-.48-3.84-1-.46-.31-.5-.68-.26-1.14.28-.52.57-.61,1-.33.65.44,1.64.94,3.17.94,2.1,0,3.41-.68,3.41-2.99v-1.14c-.9.76-2.12,1.18-3.58,1.18-3.34,0-5.39-2.49-5.39-6.55,0-1.77.37-3.23,1-4.39-.79-.72-1.38-1.59-1.86-2.4-.2-.35-.11-.72.28-.98.5-.31.74-.33.94-.04.5.79.96,1.53,1.55,2.14,1.31-1.46,3.21-2.18,5.26-2.18s3.34.96,3.34,2.53c0,1.66-1.9,2.73-4.76,2.73ZM52.69,11.82c.72.37,1.64.61,2.86.61,1.7,0,2.75-.44,2.75-1.22,0-.63-.65-1.05-1.81-1.05-1.48,0-2.84.52-3.8,1.66Z"/>
    <path class="cls-1" d="M66.86,12.74c1.05,0,1.81.35,2.34.81,0-.13.02-.24.02-.35.04-.7.35-.83.96-.83.42.02.74.15.72.74-.09,1.57-.17,4.67-.17,7.01,0,2.01.24,2.49.98,2.49,1.35,0,2.45-1.35,3.21-2.55.17-.24.55-.22.79-.04.24.2.24.48.07.83-.5.92-2.18,3.32-4.5,3.32-1,0-1.59-.52-1.9-1.48-.63.7-1.62,1.4-3.1,1.4-2.1,0-3.78-1.62-3.78-5.76s2.27-5.57,4.37-5.57ZM66.53,22.59c1.18,0,1.99-.46,2.58-1.29-.02-.37-.04-.79-.04-1.22,0-1.53.02-3.54.09-5.11-.44-.46-1.07-.76-2.01-.76-1.68,0-3.01,1.09-3.01,4.06,0,3.19,1.03,4.32,2.4,4.32Z"/>
    <path class="cls-1" d="M81.27,20.97c0,1.24.31,1.64,1.05,1.64,1.07,0,2.4-1.35,3.06-2.36.24-.35.52-.57.85-.37.37.24.33.66.09,1.07-.65,1.09-2.25,3.19-4.45,3.19-1.68,0-2.27-.98-2.27-2.79s.13-3.73.13-5.11c0-1.24-.37-1.81-1.53-1.81-.33,0-.66.02-.94.04-.04,1.46-.22,3.3-.81,5.09-1.07,3.25-3.56,4.54-5.15,4.61-.5,0-.79-.17-.81-.65,0-.46.17-.66,1.14-.87,1.94-.39,2.95-1.86,3.54-4.1.33-1.29.5-2.66.59-3.97-.46-.09-.76-.55-.76-1.64,0-.96.37-1.38,1.2-1.38s1.05.48,1.09,1.48c.46-.04.85-.07,1.24-.07,2.25,0,2.88,1,2.88,2.9s-.13,3.84-.13,5.11Z"/>
    <path class="cls-1" d="M89.59,12.79c.96,0,1.59.17,2.07.42.04-1.73.09-3.28.13-4.5.02-.57.28-.76.94-.76.55.02.79.17.76.81-.13,3.23-.24,7.73-.24,11.03,0,2.25.2,2.82.96,2.82,1.18,0,2.53-1.42,3.21-2.49.24-.35.61-.31.81-.15.33.26.31.63.02,1.07-.76,1.27-2.45,3.14-4.41,3.14-.94,0-1.62-.37-1.99-1.44-.7.76-1.7,1.35-3.08,1.35-2.16,0-3.91-1.53-3.91-5.42,0-4.26,2.51-5.87,4.72-5.87ZM89.15,22.61c.98,0,1.83-.5,2.47-1.09-.02-.35-.04-.72-.04-1.16,0-1.88.02-3.82.04-5.63-.44-.24-1-.42-1.83-.42-1.73,0-3.23,1.09-3.23,4.35,0,2.84.96,3.95,2.6,3.95Z"/>
    <path class="cls-1" d="M98.87,20.78c.42,1.11,1.25,1.59,2.47,1.59,2.21,0,3.95-1.51,4.65-2.31.26-.33.63-.33.87-.04.24.31.11.7-.02.9-.76,1-2.64,2.99-5.72,2.99-2.79,0-4.28-2.01-4.28-5.13,0-3.6,1.68-5.98,3.97-5.98,1.46,0,2.25.98,2.25,2.38,0,2.58-1.88,4.32-4.19,5.61ZM98.59,19.38c1.64-1,2.88-2.18,2.88-3.97,0-.7-.26-1.09-.85-1.09-1.03,0-2.05,1.42-2.05,4.35,0,.26,0,.5.02.72Z"/>
    <path class="cls-1" d="M107.52,13.42c-.02.33-.02.63-.04.96.83-.87,1.9-1.53,3.34-1.53,1.72,0,2.84,1.03,2.84,3.14,0,1.75-.04,4.19-.04,5.37,0,.96.15,1.29.74,1.29s.98-.24,1.29-.46c.33-.22.52-.15.72.26.24.48.17.68-.22,1-.46.35-1.11.68-2.14.68-1.24,0-2.05-.7-2.05-2.51v-5.13c0-1.44-.48-2.12-1.59-2.12s-1.99.46-2.93,1.4c-.04,2.16-.04,4.46-.04,7.12,0,.98-.2,1.11-.83,1.13-.63,0-.83-.24-.83-.92,0-3.01,0-6.44.09-9.8.02-.48.33-.61.9-.61.72.02.81.28.81.72Z"/>
    <path class="cls-1" d="M129.81,16.21c2.42.55,3.45,1.9,3.45,3.84,0,2.77-2.14,4-5.79,4-1.68,0-2.93-.13-3.12-.33-.17-.15-.31-.33-.31-1.18.07-4.74.15-8.67.2-12.1-1.42.31-2.25.92-2.25,1.88,0,1.18.48,1.57.83,1.9.31.33.15.59-.02.79-.28.33-.7.48-1.14.15-.5-.41-1.18-1.2-1.18-2.77,0-2.36,2.45-3.71,6.35-3.71,3.28,0,5.31,1.24,5.31,4.06,0,1.79-.81,2.95-2.34,3.47ZM125.86,17.07c-.02,1.73-.04,3.47-.07,5.35.5.04,1.09.09,1.73.09,2.79,0,3.97-.59,3.97-2.47,0-2.01-1.79-2.99-4.56-2.99-.37,0-.74,0-1.07.02ZM125.95,10.25c-.02,1.81-.04,3.54-.07,5.31h.76c2.4,0,3.82-.52,3.82-2.64,0-1.86-1.31-2.69-3.67-2.69-.31,0-.59,0-.85.02Z"/>
    <path class="cls-1" d="M136.5,10.84c-.66,0-1.03-.46-1.03-1.22s.59-1.14,1.16-1.14c.63,0,1.07.61,1.07,1.29,0,.59-.52,1.07-1.2,1.07ZM137.31,20.01c0,1.96.15,2.55.85,2.55,1.42,0,2.51-1.4,3.32-2.49.24-.33.57-.28.81-.11.26.2.22.66,0,.96-.68,1.07-2.27,3.23-4.45,3.23-1.42,0-2.23-.83-2.23-4,0-2.36.04-4.72.11-6.27.04-.94.33-.96.98-.96.55.02.66.26.66.7-.02,1.38-.04,3.56-.04,6.38Z"/>
    <path class="cls-1" d="M145.65,24.18c-1.57,0-2.36-.74-2.66-1.2-.37-.52-.42-.87.02-1.24.35-.26.72-.31.98.04.33.39.76.98,1.73.98.7,0,1.29-.33,1.29-1.16,0-.96-1-2.07-1.94-3.38-.28-.37-.52-.74-.76-1.09-.22.72-.5,1.44-.83,2.14-1.51,3.21-3.84,4.89-5.74,4.89-.44,0-.61-.17-.65-.57-.04-.48.41-.55,1.03-.76,2.01-.74,3.23-2.25,4.08-4.21.52-1.2.89-2.53,1.09-3.6-.24-.68-.35-1.33-.35-1.94,0-.87.28-1.2,1.09-1.2s1.05.28,1.05,1.09c0,.55-.07,1.24-.22,2.03.44.85,1.07,1.73,1.73,2.62.98,1.33,2.07,2.42,2.07,3.89,0,1.55-1.14,2.69-2.99,2.69Z"/>
    <path class="cls-1" d="M155.13,14.49c-.57.02-1.62.04-2.64.09-.04,1.64-.07,3.47-.07,5.15,0,2.16.5,3.04,1.79,3.04,2.03,0,3.1-1.27,4.02-2.45.39-.5.66-.61.94-.39.31.22.33.61-.02,1.13-.79,1.2-2.23,3.19-5,3.19-1.96,0-3.41-.94-3.41-4.43,0-1.7.04-3.52.09-5.18-.28,0-.5.02-.68.02-.57.04-.68-.24-.7-.76-.02-.52.09-.72.59-.76.17-.02.48-.02.83-.04.02-1.11.07-2.07.09-2.79.02-.55.37-.63.96-.63s.7.22.68.79c-.02.63-.04,1.53-.09,2.55,1.09-.02,2.18-.07,2.73-.07.7-.02.76.2.79.74,0,.55-.07.79-.9.81Z"/>
    <path class="cls-1" d="M164.78,20.97c0,1.24.31,1.64,1.05,1.64,1.07,0,2.4-1.35,3.06-2.36.24-.35.52-.57.85-.37.37.24.33.66.09,1.07-.66,1.09-2.25,3.19-4.45,3.19-1.68,0-2.27-.98-2.27-2.79s.13-3.73.13-5.11c0-1.24-.37-1.81-1.53-1.81-.33,0-.65.02-.94.04-.04,1.46-.22,3.3-.81,5.09-1.07,3.25-3.56,4.54-5.15,4.61-.5,0-.79-.17-.81-.65,0-.46.17-.66,1.13-.87,1.94-.39,2.95-1.86,3.54-4.1.33-1.29.5-2.66.59-3.97-.46-.09-.76-.55-.76-1.64,0-.96.37-1.38,1.2-1.38s1.05.48,1.09,1.48c.46-.04.85-.07,1.25-.07,2.25,0,2.88,1,2.88,2.9s-.13,3.84-.13,5.11Z"/>
    <path class="cls-1" d="M172.6,24.01c-2.73,0-4.21-1.9-4.21-5.22,0-1.9.46-3.1,1.09-3.91.65-1.33,1.92-2.21,3.78-2.21,2.62,0,4,1.88,4,5.44,0,3.76-1.75,5.9-4.65,5.9ZM172.68,22.5c1.77,0,2.88-1.59,2.88-4.1,0-2.95-.81-4.19-2.55-4.19-.92,0-1.64.28-2.18.79-.48.85-.81,1.83-.81,3.54,0,2.77.89,3.97,2.66,3.97Z"/>
  </g>
  <g>
    <g>
      <path class="cls-1" d="M9.77,25.76c-.79.61-2.44,2.05-3.33,4.49-1.44,3.94.2,7.42.53,8.08"/>
      <path class="cls-1" d="M6.97,38.33c.79-.61,2.44-2.05,3.33-4.49,1.44-3.94-.2-7.42-.53-8.08"/>
    </g>
    <g>
      <path class="cls-1" d="M9.36,25.16c-.47-.57-1.57-1.75-3.4-2.35-2.95-.97-5.48.33-5.96.6"/>
      <path class="cls-1" d="M0,23.41c.47.57,1.57,1.75,3.4,2.35,2.95.97,5.48-.33,5.96-.6"/>
    </g>
  </g>
  <g>
    <g>
      <path class="cls-1" d="M178.36,12.57c.79-.61,2.44-2.05,3.33-4.49,1.44-3.94-.2-7.42-.53-8.08"/>
      <path class="cls-1" d="M181.16,0c-.79.61-2.44,2.05-3.33,4.49-1.44,3.94.2,7.42.53,8.08"/>
    </g>
    <g>
      <path class="cls-1" d="M178.77,13.17c.47.57,1.57,1.75,3.4,2.35,2.95.97,5.48-.33,5.96-.6"/>
      <path class="cls-1" d="M188.13,14.93c-.47-.57-1.57-1.75-3.4-2.35-2.95-.97-5.48.33-5.96.6"/>
    </g>
  </g>
</svg>